# xmcd
#
# Track frame offsets:
#	182
#	10852
#	25575
#	39067
#	51867
#	64642
#	77580
#	89017
#	100710
#	114345
#	126495
#	142125
#	153590
#	165695
#	181045
#	195057
#	204267
#	217497
#	228382
#	241082
#	253265
#	266317
#	277647
#	290232
#	306237
#	319255
#	335392
#
# Disc length: 4620 seconds
# Revision: 3
# Processed by: cddbd v1.5.2PL0 Copyright (c) Steve Scherf et al.
# Submitted via: dBpowerAMP V12.0
#
DISCID=75120a1b
DTITLE=Delbert McClinton - Victim of Life's Circumstances and Genuine Cowhide
DYEAR=1996
DGENRE=Blues
TTITLE0=Victim of Life's Circumstances
TTITLE1=Honky Tonkin' (I Guess I Done me Some)
TTITLE2=Two More Bottles of Wine
TTITLE3=Lesson in The Pain of Love
TTITLE4=Do it
TTITLE5=Object of my Affection
TTITLE6=Ruby Louise
TTITLE7=Real Good Itch
TTITLE8=Solid Gold Plated Fool
TTITLE9=Morgan City Fool
TTITLE10=Troubled Woman
TTITLE11=It's Love Baby (24 Hours a Day)
TTITLE12=Please, Please, Please
TTITLE13=Lovey Dovey
TTITLE14=Before You Accuse me
TTITLE15=Blue Monday
TTITLE16=I'm Dyin', Fast as I Can
TTITLE17=Lipstick, Powder And Paint
TTITLE18=Pledging my Love
TTITLE19=One Kiss Led to Another
TTITLE20=(When She Wants Good Lovin') my Baby Comes to me
TTITLE21=Special Love Song
TTITLE22=Let The Good Times Roll
TTITLE23=Love Rustler
TTITLE24=Let Love Come Between us
TTITLE25=Under Suspicion
TTITLE26=Some People
EXTD=
EXTT0=
EXTT1=
EXTT2=
EXTT3=
EXTT4=
EXTT5=
EXTT6=
EXTT7=
EXTT8=
EXTT9=
EXTT10=
EXTT11=
EXTT12=
EXTT13=
EXTT14=
EXTT15=
EXTT16=
EXTT17=
EXTT18=
EXTT19=
EXTT20=
EXTT21=
EXTT22=
EXTT23=
EXTT24=
EXTT25=
EXTT26=
PLAYORDER=
